<?xml version="1.0" encoding="utf-8"?>
<!-- Generator: Adobe Illustrator 21.0.2, SVG Export Plug-In . SVG Version: 6.00 Build 0)  -->
<svg version="1.1" id="Layer_1" xmlns="http://www.w3.org/2000/svg" xmlns:xlink="http://www.w3.org/1999/xlink" x="0px" y="0px"
	 viewBox="0 0 328.5 163.2" style="enable-background:new 0 0 328.5 163.2;" xml:space="preserve">
<path d="M244.2,0c-22.4,0.2-42.2,9-56.6,23.2l0,0l-28.3,28.5l-49.5,49.8c0,0-2.2,2.2-3.2,3.3c0,0,0,0,0,0c-5.9,6-14.3,9.6-23.8,9.7
	c-19,0.2-33.7-13.9-33.9-32.8c-0.2-18.7,14.1-33.3,32.7-33.5c18.1-0.2,32.4,12.4,34.1,29.6l37.7-38.2C139,15.4,112.1-0.3,80.4,0
	C34.6,0.5-0.5,36.5,0,82.3c0.5,46.2,36.4,81.4,83.1,80.9c23-0.3,43.2-9.4,57.8-23.7c0.2-0.2,0.3-0.3,0.5-0.5l0.5-0.5l27.2-27.4
	c11.7,31.1,40.6,52.4,76.9,51.9c46.8-0.5,82.9-36.4,82.4-82.5C328,34.5,291.4-0.5,244.2,0z M246.4,114.5
	c-19,0.2-33.7-13.9-33.9-32.8c-0.2-18.7,14.1-33.3,32.7-33.5c19.2-0.2,34.1,14,34.3,32.9C279.9,99.9,265.5,114.3,246.4,114.5z"/>
</svg>
